<svg width="360" height="142" viewBox="0 0 360 142" fill="none" xmlns="http://www.w3.org/2000/svg">
<rect x="-1" y="77.39" width="361" height="64.61" fill="#0082D6"/>
<g clip-path="url(#clip0_5_14)">
<path fill-rule="evenodd" clip-rule="evenodd" d="M39.4283 -0.535794C58.3143 -3.65407 77.2004 -2.63072 96.0865 -0.535794C131.989 3.80408 165.658 12.7817 193.378 29.4951C246.136 63.3461 299.264 71.0153 362.686 49.8282C363.43 58.3708 364.986 66.9434 364.466 75.546C360.698 76.0978 333.927 82.4319 317.998 83.047C290.264 87.464 260.428 82.104 234.584 73.9386C217.993 68.6965 197.357 64.2976 184.555 56.7934C120.424 40.1797 57.1371 39.2871 -7.78693 54.1145C-7.78693 39.8272 -7.78693 25.5388 -7.78693 11.2515C7.40535 6.02117 23.1437 2.09171 39.4283 -0.535794Z" fill="#D1EDFB"/>
<path fill-rule="evenodd" clip-rule="evenodd" d="M317.584 83.047C324.23 82.5144 360.735 75.0263 364.371 75.5588C364.447 81.1899 366.126 107.036 363.365 112.494C359.681 116.069 287.204 114.71 269.643 112.597C246.87 109.279 212.598 102.589 192.878 95.9059C137.984 82.9162 82.0006 79.5333 23.0698 88.2913C12.385 90.2994 2.51385 92.1993 -7.78693 94.8343C-7.78693 81.2607 -7.78693 67.6881 -7.78693 54.1145C57.1371 39.2871 121.665 40.1797 185.795 56.7934C207.809 62.6421 218.075 68.4972 234.584 73.9386C261.176 82.0236 287.974 85.4184 317.584 83.047Z" fill="#8CD6F7"/>
<path opacity="0.012" fill-rule="evenodd" clip-rule="evenodd" d="M343.179 113.051C345.277 113.766 345.277 113.766 343.179 113.051Z" fill="#3AB2E5"/>
<path opacity="0.294" fill-rule="evenodd" clip-rule="evenodd" d="M352.622 113.051C354.72 113.766 354.72 113.766 352.622 113.051Z" fill="#C7E0EC"/>
</g>
<defs>
<clipPath id="clip0_5_14">
<rect width="373" height="115.73" fill="white" transform="translate(-7)"/>
</clipPath>
</defs>
</svg>
